<svg width="14" height="19" viewBox="0 0 14 19" fill="none" xmlns="http://www.w3.org/2000/svg">
<path d="M0.142578 18.9792C0.142578 17.1606 0.865025 15.4165 2.15099 14.1305C3.43695 12.8445 5.18109 12.1221 6.99972 12.1221C8.81835 12.1221 10.5625 12.8445 11.8485 14.1305C13.1344 15.4165 13.8569 17.1606 13.8569 18.9792H12.1426C12.1426 17.6153 11.6007 16.3072 10.6363 15.3427C9.6718 14.3782 8.36369 13.8364 6.99972 13.8364C5.63575 13.8364 4.32764 14.3782 3.36317 15.3427C2.3987 16.3072 1.85686 17.6153 1.85686 18.9792H0.142578ZM6.99972 11.2649C4.15829 11.2649 1.85686 8.96352 1.85686 6.12209C1.85686 3.28066 4.15829 0.979233 6.99972 0.979233C9.84115 0.979233 12.1426 3.28066 12.1426 6.12209C12.1426 8.96352 9.84115 11.2649 6.99972 11.2649ZM6.99972 9.55066C8.89401 9.55066 10.4283 8.01638 10.4283 6.12209C10.4283 4.2278 8.89401 2.69352 6.99972 2.69352C5.10544 2.69352 3.57115 4.2278 3.57115 6.12209C3.57115 8.01638 5.10544 9.55066 6.99972 9.55066Z" fill="#1C1D1D"/>
</svg>
